<!-- <svg width="270" height="34" viewBox="0 0 270 34" fill="none" xmlns="http://www.w3.org/2000/svg">
<path d="M13.168 33.836C11.1147 33.836 9.31067 33.484 7.756 32.78C6.23067 32.076 4.95467 31.1373 3.928 29.964C2.93067 28.7613 2.168 27.4267 1.64 25.96C1.14133 24.4933 0.892 22.9973 0.892 21.472V20.636C0.892 19.052 1.14133 17.5267 1.64 16.06C2.168 14.564 2.93067 13.244 3.928 12.1C4.95467 10.9267 6.216 10.0027 7.712 9.328C9.208 8.624 10.9387 8.272 12.904 8.272C15.4853 8.272 17.6413 8.844 19.372 9.988C21.132 11.1027 22.452 12.584 23.332 14.432C24.212 16.2507 24.652 18.216 24.652 20.328V22.528H3.488V18.788H20.824L18.932 20.636C18.932 19.1107 18.712 17.8053 18.272 16.72C17.832 15.6347 17.1573 14.7987 16.248 14.212C15.368 13.6253 14.2533 13.332 12.904 13.332C11.5547 13.332 10.4107 13.64 9.472 14.256C8.53333 14.872 7.81467 15.7667 7.316 16.94C6.84667 18.084 6.612 19.4627 6.612 21.076C6.612 22.572 6.84667 23.9067 7.316 25.08C7.78533 26.224 8.504 27.1333 9.472 27.808C10.44 28.4533 11.672 28.776 13.168 28.776C14.664 28.776 15.8813 28.4827 16.82 27.896C17.7587 27.28 18.36 26.532 18.624 25.652H24.256C23.904 27.2947 23.2293 28.732 22.232 29.964C21.2347 31.196 19.9587 32.1493 18.404 32.824C16.8787 33.4987 15.1333 33.836 13.168 33.836ZM40.1452 33.308C37.9452 33.308 36.1265 33.0293 34.6892 32.472C33.2812 31.8853 32.2252 30.9173 31.5212 29.568C30.8172 28.1893 30.4652 26.3413 30.4652 24.024L30.5092 2.376H36.2292L36.1852 24.42C36.1852 25.5933 36.4932 26.5027 37.1092 27.148C37.7545 27.764 38.6638 28.072 39.8372 28.072H43.5772V33.308H40.1452ZM26.6812 13.596V9.108H43.5772V13.596H26.6812ZM48.7104 33V0.879999H54.8264V19.624H53.7704C53.7704 17.2187 54.0784 15.18 54.6944 13.508C55.3104 11.836 56.2197 10.56 57.4224 9.68C58.6544 8.8 60.209 8.36 62.0864 8.36H62.3504C65.0784 8.36 67.1464 9.29867 68.5544 11.176C69.9624 13.0533 70.6664 15.7813 70.6664 19.36V33H64.5504V18.788C64.5504 17.2627 64.1104 16.06 63.2304 15.18C62.3797 14.3 61.2504 13.86 59.8424 13.86C58.3464 13.86 57.129 14.3587 56.1904 15.356C55.281 16.324 54.8264 17.6 54.8264 19.184V33H48.7104ZM91.7176 33V25.916H90.7056V18.04C90.7056 16.6613 90.3683 15.6347 89.6936 14.96C89.019 14.2853 87.9776 13.948 86.5696 13.948C85.8363 13.948 84.9563 13.9627 83.9296 13.992C82.903 14.0213 81.8616 14.0653 80.8056 14.124C79.779 14.1533 78.855 14.1973 78.0336 14.256V9.064C78.7083 9.00533 79.471 8.94667 80.3216 8.888C81.1723 8.82933 82.0376 8.8 82.9176 8.8C83.827 8.77067 84.6776 8.756 85.4696 8.756C87.9336 8.756 89.9723 9.07867 91.5856 9.724C93.2283 10.3693 94.4603 11.3813 95.2816 12.76C96.1323 14.1387 96.5576 15.9427 96.5576 18.172V33H91.7176ZM84.0176 33.616C82.287 33.616 80.7616 33.308 79.4416 32.692C78.151 32.076 77.139 31.196 76.4056 30.052C75.7016 28.908 75.3496 27.5293 75.3496 25.916C75.3496 24.156 75.775 22.7187 76.6256 21.604C77.5056 20.4893 78.723 19.6533 80.2776 19.096C81.8616 18.5387 83.7096 18.26 85.8216 18.26H91.3656V21.912H85.7336C84.3256 21.912 83.2403 22.264 82.4776 22.968C81.7443 23.6427 81.3776 24.5227 81.3776 25.608C81.3776 26.6933 81.7443 27.5733 82.4776 28.248C83.2403 28.9227 84.3256 29.26 85.7336 29.26C86.5843 29.26 87.3616 29.1133 88.0656 28.82C88.799 28.4973 89.4003 27.9693 89.8696 27.236C90.3683 26.4733 90.647 25.4467 90.7056 24.156L92.2016 25.872C92.055 27.544 91.6443 28.952 90.9696 30.096C90.3243 31.24 89.415 32.12 88.2416 32.736C87.0976 33.3227 85.6896 33.616 84.0176 33.616ZM103.109 33V9.108H107.949V19.36H107.509C107.509 16.9253 107.831 14.9013 108.477 13.288C109.122 11.6453 110.075 10.4133 111.337 9.592C112.627 8.77067 114.226 8.36 116.133 8.36H116.397C119.242 8.36 121.398 9.284 122.865 11.132C124.331 12.9507 125.065 15.6787 125.065 19.316V33H118.949V18.788C118.949 17.3213 118.523 16.1333 117.673 15.224C116.851 14.3147 115.707 13.86 114.241 13.86C112.745 13.86 111.527 14.3293 110.589 15.268C109.679 16.1773 109.225 17.4093 109.225 18.964V33H103.109ZM149.1 33.66C146.225 33.66 144.011 33 142.456 31.68C140.931 30.36 140.153 28.6733 140.124 26.62H142.412C142.412 27.94 142.925 29.0987 143.952 30.096C145.008 31.064 146.724 31.548 149.1 31.548C151.417 31.548 153.119 31.064 154.204 30.096C155.289 29.0987 155.832 27.9253 155.832 26.576C155.832 25.256 155.333 24.244 154.336 23.54C153.368 22.836 152.048 22.396 150.376 22.22L147.648 21.912C145.624 21.6773 144.011 21.0467 142.808 20.02C141.635 18.9933 141.048 17.6 141.048 15.84C141.048 14.5787 141.371 13.4493 142.016 12.452C142.661 11.4547 143.585 10.6627 144.788 10.076C146.02 9.48933 147.457 9.196 149.1 9.196C151.505 9.196 153.441 9.78267 154.908 10.956C156.404 12.1293 157.167 13.728 157.196 15.752H154.908C154.937 14.4907 154.439 13.4347 153.412 12.584C152.415 11.7333 150.977 11.308 149.1 11.308C147.135 11.308 145.668 11.7627 144.7 12.672C143.761 13.5813 143.292 14.652 143.292 15.884C143.292 16.9107 143.659 17.7907 144.392 18.524C145.155 19.2573 146.299 19.712 147.824 19.888L150.552 20.196C152.723 20.4013 154.512 21.032 155.92 22.088C157.357 23.144 158.076 24.6547 158.076 26.62C158.076 27.94 157.709 29.128 156.976 30.184C156.272 31.24 155.26 32.0907 153.94 32.736C152.62 33.352 151.007 33.66 149.1 33.66ZM165.223 33V9.9H167.071V19.36H166.543C166.543 17.3653 166.837 15.62 167.423 14.124C168.039 12.5987 168.949 11.4107 170.151 10.56C171.354 9.70933 172.879 9.284 174.727 9.284H174.859C176.678 9.284 178.189 9.70933 179.391 10.56C180.594 11.3813 181.474 12.5547 182.031 14.08C182.618 15.576 182.911 17.336 182.911 19.36H182.031C182.031 17.3653 182.325 15.62 182.911 14.124C183.527 12.5987 184.437 11.4107 185.639 10.56C186.871 9.70933 188.411 9.284 190.259 9.284H190.391C192.21 9.284 193.721 9.70933 194.923 10.56C196.155 11.3813 197.065 12.5547 197.651 14.08C198.238 15.576 198.531 17.336 198.531 19.36V33H196.199V18.832C196.199 16.632 195.657 14.8573 194.571 13.508C193.515 12.1293 191.946 11.44 189.863 11.44C187.751 11.44 186.079 12.144 184.847 13.552C183.645 14.96 183.043 16.7933 183.043 19.052V33H180.711V18.832C180.711 16.632 180.169 14.8573 179.083 13.508C178.027 12.1293 176.458 11.44 174.375 11.44C172.263 11.44 170.591 12.144 169.359 13.552C168.157 14.96 167.555 16.7933 167.555 19.052V33H165.223ZM208.522 33V9.9H210.898V33H208.522ZM204.694 11.924V9.9H210.898V11.924H204.694ZM208.742 5.06C208.126 5.06 207.656 4.89866 207.334 4.576C207.011 4.224 206.85 3.784 206.85 3.256C206.85 2.69866 207.011 2.244 207.334 1.892C207.656 1.54 208.14 1.364 208.786 1.364C209.402 1.364 209.871 1.54 210.194 1.892C210.516 2.244 210.678 2.69866 210.678 3.256C210.678 3.784 210.516 4.224 210.194 4.576C209.9 4.89866 209.416 5.06 208.742 5.06ZM227.709 33.22C226.271 33.22 225.01 33.0147 223.925 32.604C222.839 32.164 222.003 31.4307 221.417 30.404C220.83 29.3773 220.537 27.9987 220.537 26.268V2.376H222.825V26.664C222.825 28.072 223.206 29.172 223.969 29.964C224.761 30.7267 225.846 31.108 227.225 31.108H231.537V33.22H227.709ZM216.137 11.792V9.9H231.537V11.792H216.137ZM238.356 33V0.879999H240.688V18.04L239.852 19.536C239.852 17.512 240.16 15.7373 240.776 14.212C241.422 12.6573 242.39 11.4547 243.68 10.604C244.971 9.724 246.599 9.284 248.564 9.284H248.652C251.527 9.284 253.698 10.1933 255.164 12.012C256.631 13.8013 257.364 16.2507 257.364 19.36V33H254.988V18.832C254.988 16.6027 254.387 14.8133 253.184 13.464C251.982 12.1147 250.28 11.44 248.08 11.44C245.822 11.44 244.018 12.1587 242.668 13.596C241.348 15.004 240.688 16.852 240.688 19.14V33H238.356Z" fill="white"/>
<path d="M265.19 33V28.644H269.326V33H265.19Z" fill="#F13024"/>
</svg> -->




<svg width="413.282" height="96.29" viewBox="0 0 413.282 96.29" xmlns="http://www.w3.org/2000/svg"><g id="svgGroup" stroke-linecap="round" fill-rule="evenodd" font-size="9pt" stroke="#f63025" stroke-width="0.25mm" fill="#f63025" style="stroke:#f63025;stroke-width:0.25mm;fill:#f63025"><path d="M 0 3.906 L 0 75 L 9.375 75 L 9.375 42.188 L 45.215 42.188 L 45.215 75 L 54.59 75 L 54.59 3.906 L 45.215 3.906 L 45.215 34.473 L 9.375 34.473 L 9.375 3.906 L 0 3.906 Z M 207.617 0 L 207.617 75 L 216.699 75 L 216.699 38.672 Q 218.555 34.961 221.875 32.617 A 12.842 12.842 0 0 1 229.002 30.283 A 15.769 15.769 0 0 1 229.541 30.273 Q 233.386 30.273 235.902 31.799 A 8.376 8.376 0 0 1 237.378 32.935 A 7.807 7.807 0 0 1 239.202 35.769 Q 240.137 38.167 240.137 41.748 L 240.137 75 L 249.219 75 L 249.219 41.846 A 36.587 36.587 0 0 0 248.874 36.628 Q 247.991 30.518 244.847 27.315 A 10.977 10.977 0 0 0 244.604 27.075 A 15.741 15.741 0 0 0 235.204 22.787 A 21.343 21.343 0 0 0 232.812 22.656 A 21.622 21.622 0 0 0 225.85 23.759 A 20.057 20.057 0 0 0 223.633 24.658 A 20.733 20.733 0 0 0 218.551 28.034 A 18.785 18.785 0 0 0 216.699 29.98 L 216.699 0 L 207.617 0 Z M 164.063 59.863 L 154.98 59.863 L 154.98 60.107 A 16.548 16.548 0 0 0 155.932 65.832 A 14.347 14.347 0 0 0 160.352 71.997 Q 164.512 75.458 171.603 76.238 A 40.053 40.053 0 0 0 175.977 76.465 Q 182.4 76.465 186.812 74.74 A 15.693 15.693 0 0 0 191.357 72.07 A 14.027 14.027 0 0 0 196.453 61.893 A 17.503 17.503 0 0 0 196.484 60.84 A 16.545 16.545 0 0 0 195.951 56.515 A 11.657 11.657 0 0 0 191.968 50.342 A 22.524 22.524 0 0 0 187.697 47.66 Q 185.558 46.609 182.946 45.772 A 49.89 49.89 0 0 0 179.15 44.727 Q 171.31 42.882 168.349 41.255 A 9.421 9.421 0 0 1 168.018 41.064 A 6.826 6.826 0 0 1 166.479 39.828 A 4.883 4.883 0 0 1 165.186 36.426 A 5.869 5.869 0 0 1 167.141 31.982 A 8.057 8.057 0 0 1 167.651 31.543 A 7.466 7.466 0 0 1 169.799 30.391 Q 171.823 29.67 174.815 29.598 A 28.042 28.042 0 0 1 175.488 29.59 Q 180.723 29.59 183.291 31.584 A 6.516 6.516 0 0 1 183.423 31.689 A 6.857 6.857 0 0 1 185.951 36.614 A 9.727 9.727 0 0 1 185.986 37.451 L 185.986 37.891 L 195.02 37.891 L 195.02 37.646 A 15.205 15.205 0 0 0 194.099 32.249 A 13.383 13.383 0 0 0 189.648 26.343 Q 184.651 22.458 176.695 22.188 A 35.541 35.541 0 0 0 175.488 22.168 A 29.849 29.849 0 0 0 169.687 22.699 Q 166.236 23.383 163.529 24.948 A 16.723 16.723 0 0 0 161.45 26.367 A 14.707 14.707 0 0 0 158.052 30.134 A 12.69 12.69 0 0 0 156.201 36.914 A 13.186 13.186 0 0 0 156.946 41.445 A 11.31 11.31 0 0 0 161.084 46.802 Q 164.88 49.554 170.741 51.346 A 55.585 55.585 0 0 0 174.268 52.295 A 95.518 95.518 0 0 1 177.621 53.144 Q 182.563 54.498 184.633 55.792 A 6.823 6.823 0 0 1 185.059 56.079 Q 187.549 57.91 187.549 61.328 A 6.283 6.283 0 0 1 185.341 66.192 A 9.079 9.079 0 0 1 184.448 66.895 A 10.958 10.958 0 0 1 181.204 68.391 Q 179.786 68.799 178.098 68.951 A 23.556 23.556 0 0 1 175.977 69.043 A 21.049 21.049 0 0 1 172.532 68.778 Q 170.625 68.461 169.071 67.766 A 10.971 10.971 0 0 1 167.334 66.797 A 7.283 7.283 0 0 1 164.143 61.45 A 10.782 10.782 0 0 1 164.062 60.107 L 164.063 59.863 Z M 103.027 75 L 111.816 75 L 111.816 74.219 Q 110.938 72.07 110.449 69.263 A 33.184 33.184 0 0 1 110.009 65.229 A 39.106 39.106 0 0 1 109.961 63.281 L 109.961 39.844 A 24.169 24.169 0 0 0 109.463 34.775 Q 108.366 29.666 104.858 26.611 Q 100.541 22.851 93.234 22.273 A 34.936 34.936 0 0 0 90.479 22.168 A 30.505 30.505 0 0 0 84.429 22.732 Q 79.287 23.773 75.757 26.733 A 17.263 17.263 0 0 0 72.548 30.212 A 12.499 12.499 0 0 0 70.313 37.402 L 70.313 37.646 L 79.346 37.646 L 79.346 37.402 A 7.356 7.356 0 0 1 81.306 32.388 A 9.983 9.983 0 0 1 81.86 31.812 Q 84.269 29.496 89.748 29.399 A 27.403 27.403 0 0 1 90.234 29.395 A 18.629 18.629 0 0 1 93.103 29.6 Q 96.729 30.166 98.486 32.3 A 10.177 10.177 0 0 1 100.542 36.609 A 14.73 14.73 0 0 1 100.879 39.844 L 100.879 43.359 L 89.258 43.359 A 34.624 34.624 0 0 0 82.36 44.009 Q 77.289 45.04 73.486 47.705 Q 67.635 51.806 67.305 58.993 A 18.972 18.972 0 0 0 67.285 59.863 Q 67.285 67.676 72.412 71.826 A 18.556 18.556 0 0 0 82.519 75.865 A 24.081 24.081 0 0 0 84.863 75.977 Q 91.211 75.977 95.239 73.535 A 20.664 20.664 0 0 0 98.097 71.473 Q 99.603 70.163 100.6 68.685 A 11.934 11.934 0 0 0 101.074 67.92 Q 101.221 69.873 101.782 71.826 Q 102.2 73.28 102.686 74.328 A 9.861 9.861 0 0 0 103.027 75 Z M 381.543 75 L 390.332 75 L 390.332 74.219 Q 389.453 72.07 388.965 69.263 A 33.184 33.184 0 0 1 388.524 65.229 A 39.106 39.106 0 0 1 388.477 63.281 L 388.477 39.844 A 24.169 24.169 0 0 0 387.978 34.775 Q 386.882 29.666 383.374 26.611 Q 379.056 22.851 371.749 22.273 A 34.936 34.936 0 0 0 368.994 22.168 A 30.505 30.505 0 0 0 362.945 22.732 Q 357.803 23.773 354.272 26.733 A 17.263 17.263 0 0 0 351.063 30.212 A 12.499 12.499 0 0 0 348.828 37.402 L 348.828 37.646 L 357.861 37.646 L 357.861 37.402 A 7.356 7.356 0 0 1 359.821 32.388 A 9.983 9.983 0 0 1 360.376 31.812 Q 362.785 29.496 368.264 29.399 A 27.403 27.403 0 0 1 368.75 29.395 A 18.629 18.629 0 0 1 371.618 29.6 Q 375.245 30.166 377.002 32.3 A 10.177 10.177 0 0 1 379.058 36.609 A 14.73 14.73 0 0 1 379.395 39.844 L 379.395 43.359 L 367.773 43.359 A 34.624 34.624 0 0 0 360.875 44.009 Q 355.805 45.04 352.002 47.705 Q 346.151 51.806 345.821 58.993 A 18.972 18.972 0 0 0 345.801 59.863 Q 345.801 67.676 350.928 71.826 A 18.556 18.556 0 0 0 361.035 75.865 A 24.081 24.081 0 0 0 363.379 75.977 Q 369.727 75.977 373.755 73.535 A 20.664 20.664 0 0 0 376.612 71.473 Q 378.119 70.163 379.115 68.685 A 11.934 11.934 0 0 0 379.59 67.92 Q 379.736 69.873 380.298 71.826 Q 380.716 73.28 381.202 74.328 A 9.861 9.861 0 0 0 381.543 75 Z M 288.672 3.906 L 288.672 75 L 298.047 75 L 298.047 45.996 L 311.816 45.996 A 35.742 35.742 0 0 0 318.752 45.365 Q 322.817 44.56 325.967 42.729 A 18.804 18.804 0 0 0 329.443 40.137 A 19.515 19.515 0 0 0 335.522 27.397 A 26.774 26.774 0 0 0 335.645 24.805 A 23.479 23.479 0 0 0 334.698 17.978 A 18.439 18.439 0 0 0 329.443 9.619 Q 324.018 4.621 314.592 3.996 A 41.963 41.963 0 0 0 311.816 3.906 L 288.672 3.906 Z M 390.82 87.695 L 390.82 95.02 Q 391.835 95.385 393.678 95.733 A 46.912 46.912 0 0 0 394.458 95.874 Q 396.875 96.289 398.828 96.289 A 16.846 16.846 0 0 0 402.783 95.853 A 10.9 10.9 0 0 0 408.765 92.236 Q 412.024 88.344 412.153 80.084 A 44.085 44.085 0 0 0 412.158 79.395 L 412.158 23.633 L 403.076 23.633 L 403.076 81.348 A 14.753 14.753 0 0 1 402.954 83.32 Q 402.629 85.721 401.44 86.963 A 5.354 5.354 0 0 1 398.736 88.47 A 8.084 8.084 0 0 1 396.875 88.672 Q 395.41 88.672 393.604 88.33 A 53.442 53.442 0 0 1 392.752 88.162 Q 391.553 87.915 390.82 87.695 Z M 124.121 23.633 L 124.121 75 L 133.203 75 L 133.203 38.867 Q 134.668 35.449 137.744 33.154 A 11.479 11.479 0 0 1 143.1 31.003 A 15.125 15.125 0 0 1 145.215 30.859 Q 146.484 30.859 147.559 30.957 A 20.018 20.018 0 0 1 149.115 31.158 A 17.771 17.771 0 0 1 149.609 31.25 L 149.609 22.852 Q 149.241 22.704 148.485 22.529 A 25.144 25.144 0 0 0 147.949 22.412 A 11.623 11.623 0 0 0 146.419 22.194 A 9.905 9.905 0 0 0 145.703 22.168 A 13.372 13.372 0 0 0 141.614 22.772 A 11.452 11.452 0 0 0 138.135 24.585 A 20.432 20.432 0 0 0 133.417 29.578 A 19.401 19.401 0 0 0 133.008 30.225 L 132.715 30.225 L 132.324 23.633 L 124.121 23.633 Z M 311.816 38.379 L 298.047 38.379 L 298.047 11.523 L 311.816 11.523 A 26.995 26.995 0 0 1 315.761 11.79 Q 320.762 12.531 323.096 15.332 A 13.575 13.575 0 0 1 326.107 22.333 A 18.182 18.182 0 0 1 326.27 24.805 Q 326.27 30.469 323.096 34.424 A 9.197 9.197 0 0 1 319.375 37.127 Q 316.376 38.379 311.816 38.379 Z M 311.621 42.188 L 329.004 75 L 339.453 75 L 320.898 40.771 L 311.621 42.188 Z M 90.234 49.805 L 100.879 49.805 L 100.879 57.178 A 8.381 8.381 0 0 1 99.579 61.586 Q 98.502 63.358 96.533 65.039 A 15.593 15.593 0 0 1 91.627 67.935 A 14.245 14.245 0 0 1 86.816 68.75 A 18.354 18.354 0 0 1 83.912 68.536 Q 82.407 68.294 81.213 67.779 A 7.494 7.494 0 0 1 78.906 66.26 A 8.196 8.196 0 0 1 76.667 62.171 A 12.295 12.295 0 0 1 76.367 59.375 Q 76.367 54.98 79.883 52.393 A 11.466 11.466 0 0 1 83.136 50.766 Q 84.694 50.255 86.6 50.016 A 29.247 29.247 0 0 1 90.234 49.805 Z M 368.75 49.805 L 379.395 49.805 L 379.395 57.178 A 8.381 8.381 0 0 1 378.095 61.586 Q 377.018 63.358 375.049 65.039 A 15.593 15.593 0 0 1 370.142 67.935 A 14.245 14.245 0 0 1 365.332 68.75 A 18.354 18.354 0 0 1 362.428 68.536 Q 360.923 68.294 359.729 67.779 A 7.494 7.494 0 0 1 357.422 66.26 A 8.196 8.196 0 0 1 355.183 62.171 A 12.295 12.295 0 0 1 354.883 59.375 Q 354.883 54.98 358.398 52.393 A 11.466 11.466 0 0 1 361.652 50.766 Q 363.21 50.255 365.116 50.016 A 29.247 29.247 0 0 1 368.75 49.805 Z M 401.953 8.105 A 5.93 5.93 0 0 0 402.297 10.157 A 5.265 5.265 0 0 0 403.418 11.963 A 4.74 4.74 0 0 0 405.736 13.303 Q 406.48 13.498 407.362 13.522 A 9.262 9.262 0 0 0 407.617 13.525 A 7.675 7.675 0 0 0 409.275 13.357 Q 410.391 13.11 411.213 12.501 A 4.497 4.497 0 0 0 411.816 11.963 A 5.369 5.369 0 0 0 413.276 8.389 A 6.983 6.983 0 0 0 413.281 8.105 A 5.93 5.93 0 0 0 412.938 6.054 A 5.265 5.265 0 0 0 411.816 4.248 A 4.74 4.74 0 0 0 409.498 2.908 Q 408.754 2.713 407.872 2.689 A 9.262 9.262 0 0 0 407.617 2.686 A 7.675 7.675 0 0 0 405.959 2.854 Q 404.843 3.101 404.021 3.71 A 4.497 4.497 0 0 0 403.418 4.248 A 5.369 5.369 0 0 0 401.959 7.821 A 6.983 6.983 0 0 0 401.953 8.105 Z" vector-effect="non-scaling-stroke"/></g></svg>